<svg width="13" height="13" viewBox="0 0 13 13" fill="none" xmlns="http://www.w3.org/2000/svg">
<path fill-rule="evenodd" clip-rule="evenodd" d="M11.8033 1.19667C11.4128 0.806148 10.7796 0.806148 10.3891 1.19667L6.5 5.08576L2.61091 1.19667C2.22039 0.806148 1.58722 0.806148 1.1967 1.19667C0.806175 1.5872 0.806176 2.22036 1.1967 2.61089L5.08579 6.49997L1.1967 10.3891C0.806175 10.7796 0.806175 11.4127 1.1967 11.8033C1.58722 12.1938 2.22039 12.1938 2.61091 11.8033L6.5 7.91419L10.3891 11.8033C10.7796 12.1938 11.4128 12.1938 11.8033 11.8033C12.1938 11.4127 12.1938 10.7796 11.8033 10.3891L7.91421 6.49997L11.8033 2.61089C12.1938 2.22036 12.1938 1.5872 11.8033 1.19667Z" fill="white"/>
</svg>
