<svg width="29" height="28" viewBox="0 0 29 28" fill="none" xmlns="http://www.w3.org/2000/svg">
<path fill-rule="evenodd" clip-rule="evenodd" d="M4.42105 0.736842C4.42105 0.329895 4.75095 0 5.1579 0H23.5789C23.9859 0 24.3158 0.329895 24.3158 0.736842V5.15789H25.7895C26.1964 5.15789 26.5263 5.48779 26.5263 5.89474C26.5263 6.30168 26.1964 6.63158 25.7895 6.63158H23.5789C23.172 6.63158 22.8421 6.30168 22.8421 5.89474V1.47368H5.89474V5.89474C5.89474 6.30168 5.56484 6.63158 5.1579 6.63158H2.94737C2.54042 6.63158 2.21053 6.30168 2.21053 5.89474C2.21053 5.48779 2.54042 5.15789 2.94737 5.15789H4.42105V0.736842ZM0 8.8421C0 8.43516 0.329895 8.10526 0.736842 8.10526H28C28.4069 8.10526 28.7368 8.43516 28.7368 8.8421V19.8947C28.7368 20.3017 28.4069 20.6316 28 20.6316H24.3158V27.2632C24.3158 27.6701 23.9859 28 23.5789 28H5.1579C4.75095 28 4.42105 27.6701 4.42105 27.2632V20.6316H0.736842C0.329895 20.6316 0 20.3017 0 19.8947V8.8421ZM4.42105 19.1579V17.6842C4.42105 17.2773 4.75095 16.9474 5.1579 16.9474H23.5789C23.9859 16.9474 24.3158 17.2773 24.3158 17.6842V19.1579H27.2632V9.57895H1.47368V19.1579H4.42105ZM19.1579 11.7895C19.1579 11.3825 19.4878 11.0526 19.8947 11.0526H25.0526C25.4596 11.0526 25.7895 11.3825 25.7895 11.7895V14.7368C25.7895 15.1438 25.4596 15.4737 25.0526 15.4737H19.8947C19.4878 15.4737 19.1579 15.1438 19.1579 14.7368V11.7895ZM20.6316 12.5263V14H24.3158V12.5263H20.6316ZM5.89474 18.4211V26.5263H22.8421V18.4211H5.89474ZM7.36842 20.6316C7.36842 20.2246 7.69832 19.8947 8.10526 19.8947H20.6316C21.0385 19.8947 21.3684 20.2246 21.3684 20.6316C21.3684 21.0385 21.0385 21.3684 20.6316 21.3684H8.10526C7.69832 21.3684 7.36842 21.0385 7.36842 20.6316ZM7.36842 23.5789C7.36842 23.172 7.69832 22.8421 8.10526 22.8421H20.6316C21.0385 22.8421 21.3684 23.172 21.3684 23.5789C21.3684 23.9859 21.0385 24.3158 20.6316 24.3158H8.10526C7.69832 24.3158 7.36842 23.9859 7.36842 23.5789Z" fill="#0B489D"/>
</svg>
